<svg width="20" height="20" viewBox="0 0 20 20" fill="none" xmlns="http://www.w3.org/2000/svg">
    <g id="Rate Star-0">
        <path id="Union"
            d="M19.3531 7.04306L13.3575 6.13059L10.6773 0.440657C10.6041 0.284871 10.4837 0.158757 10.3349 0.0821001C9.96178 -0.110779 9.50839 0.0499536 9.32184 0.440657L6.64164 6.13059L0.646028 7.04306C0.48073 7.06779 0.3296 7.14939 0.213891 7.27303C0.0740049 7.42359 -0.00307853 7.62615 -0.000421817 7.83619C0.00223489 8.04624 0.0844144 8.24658 0.228059 8.39321L4.56596 12.822L3.54111 19.0757C3.51708 19.2212 3.53245 19.3708 3.58549 19.5076C3.63852 19.6444 3.7271 19.7629 3.84117 19.8497C3.95525 19.9364 4.09025 19.988 4.23088 19.9985C4.37151 20.009 4.51213 19.978 4.63681 19.9091L9.99956 16.9565L15.3623 19.9091C15.5087 19.9907 15.6787 20.0179 15.8417 19.9882C16.2526 19.914 16.5289 19.506 16.458 19.0757L15.4332 12.822L19.7711 8.39321C19.8891 8.27204 19.9671 8.11378 19.9907 7.94069C20.0544 7.50795 19.7663 7.10735 19.3531 7.04306V7.04306Z"
            fill="white" fill-opacity="0.06" />
    </g>
</svg>